<svg xmlns="http://www.w3.org/2000/svg" version="1.1" xmlns:xlink="http://www.w3.org/1999/xlink" xmlns:svgjs="http://svgjs.dev/svgjs" width="100%" height="100%" viewBox="0 0 1000 600"><rect width="1000" height="600" x="0" y="0" fill="#072c50"/><g><rect width="333.3333333333333" height="333.3333333333333" rx="13.333333333333334" ry="13.333333333333334" y="418.19633439815544" fill="#b88746" transform="matrix(0.31567722784425234,0,0,0.31567722784425234,0,115.37207257119171)" x="395.9740905761719"/><path d="M527.7024150496536 558.8478406016013L520.3304986478382 558.8478406016013Q518.281162814129 539.5783911651957 506.89596373796604 528.9047670312931Q495.5107646618032 518.2596058950808 477.69292810760834 518.2596058950808L477.69292810760834 518.2596058950808Q466.8200629898728 518.2596058950808 457.3134217612768 522.8706115209268Q447.77831753499044 527.4816171467728 440.60564211700785 536.0774424492756Q433.4329666990252 544.7017307494691 429.3342950316066 556.798504767892Q425.235623364188 568.8668157886248 425.235623364188 584.0375935576117L425.235623364188 584.0375935576117Q425.235623364188 603.3070429940174 432.6075397660034 618.0508757976481Q439.97945616781885 632.8231715989696 452.4747121539076 641.0205149338067Q464.99843113768674 649.217858268644 480.1407459089833 649.217858268644L480.1407459089833 649.217858268644Q493.46142882809386 649.217858268644 506.38362977953875 643.1552397605874Q519.3058307309835 637.121084250221 527.5031740658208 625.6504961809869L527.5031740658208 625.6504961809869L532.825754633927 629.9484088322383Q524.0022253499008 642.0451828506614 513.7555461813541 648.591672319455Q503.50886701280757 655.1666247859391 493.37603983502265 657.5005905965525Q483.2147496595473 659.8630194048562 474.8181653408772 659.8630194048562L474.8181653408772 659.8630194048562Q459.44814658805734 659.8630194048562 446.63979762737415 654.3411978529173Q433.8314486666909 648.7909133032879 424.5240484219278 638.8573271093358Q415.18818517947426 628.9237409153836 410.1786975859626 615.7169099870348Q405.14074699476055 602.4816160609955 405.14074699476055 587.1115973081755L405.14074699476055 587.1115973081755Q405.14074699476055 572.5670054883776 409.55251163677366 558.8478406016013Q413.96427627878677 545.1002127171348 422.75934256512255 534.0281066155663Q431.5828718491488 522.9844635116883 445.0174067590209 516.4095110452043Q458.4234786712027 509.86302157641074 476.269778223088 509.86302157641074L476.269778223088 509.86302157641074Q487.74036629232205 509.86302157641074 497.9870454608686 512.9370253269747Q508.2337246294152 516.0110290775386 517.65497686494 522.3582775624994L517.65497686494 522.3582775624994L516.6303089480853 511.28617146093103L527.7024150496536 511.28617146093103L527.7024150496536 558.8478406016013ZM633.641692453349 658.6391105041687L627.4936849522211 658.6391105041687Q618.470914684362 638.1457521670757 609.2489034326701 617.7662458207442Q600.0268921809782 597.3582764767223 591.2318258946424 576.4664361719633L591.2318258946424 576.4664361719633Q588.3570631279113 569.8914837054792 585.5961523519418 563.231142245924Q582.8352415759723 556.5708007863689 580.2735717838357 549.8250703337424Q577.711901991699 543.0508768834254 575.0363802088007 536.3051464307989L575.0363802088007 536.3051464307989Q575.0363802088007 538.5537232483412 574.9225282180391 540.8023000658832Q574.8371392249679 543.0508768834254 574.8371392249679 545.2994537009677L574.8371392249679 545.2994537009677Q574.6378982411351 552.6998331004734 574.3248052665406 563.0319012620912Q574.0117122919461 573.3924324213995 573.6132303242804 585.1761134652279Q573.1862853589244 596.9597945090566 572.9870443750915 608.743475552885Q572.7878033912586 620.5271565967137 572.5885624074258 630.973076749093L572.5885624074258 630.973076749093Q572.3608584259025 635.4702303841773 572.2754694328312 639.9958470169522Q572.1616174420697 644.4930006520365 571.763135474404 648.3924313356222L571.763135474404 648.3924313356222Q575.6625661579897 648.1931903517893 579.4481448508138 647.9939493679565Q583.233723543638 647.7662453864332 587.1331542272237 647.5670044026003L587.1331542272237 647.5670044026003L587.1331542272237 656.5897746704595L547.996532402914 656.5897746704595L547.996532402914 649.8155812201426Q554.3437808878748 649.6163402363097 557.3039326476771 647.0546704441731Q560.2925474051699 644.4930006520365 561.0895113405013 640.1950880007851Q561.914938273523 635.8971753495334 562.1141792573559 630.973076749093L562.1141792573559 630.973076749093L566.0136099409417 537.5290553314865Q566.2128509247746 533.4303836640678 566.3267029155361 529.3317119966491Q566.4405549062977 525.2330403292306 566.6397958901307 521.3336096456449L566.6397958901307 521.3336096456449Q562.9396061903777 521.5328506294777 559.2678794883152 521.6467026202392Q555.5676897885622 521.7320916133106 551.8675000888093 521.9597955948337L551.8675000888093 521.9597955948337L551.8675000888093 513.1362663108075L583.233723543638 513.1362663108075L618.470914684362 594.483513709991Q621.1464364672603 600.631521211119 623.7081062593969 606.7795287122469Q626.2697760515337 612.9275362133749 629.0306868275031 619.0755437145028Q631.7915976034726 625.2235512156308 634.4671193863708 631.599262698282L634.4671193863708 631.599262698282L634.8656013540365 631.599262698282Q637.1426411692692 626.0489781486526 640.2166449198331 618.3639687722427Q643.2906486703971 610.6789593958329 645.3399845041064 605.1571378438937L645.3399845041064 605.1571378438937Q654.334291774275 582.6144436730913 664.0686369843943 559.9578975115273Q673.8029821945136 537.3298143476536 683.2526974277287 513.1362663108075L683.2526974277287 513.1362663108075L713.5657899680123 513.1362663108075L713.5657899680123 519.9104597611245Q708.442450383739 519.6827557796012 705.1692056493422 521.8459436040721Q701.8959609149454 524.009131428543 700.4443480327346 528.9047670312931Q699.0211981482142 533.8288656317335 699.4196801158799 542.2254499504036L699.4196801158799 542.2254499504036L704.7707236816765 635.4702303841773Q705.1692056493422 638.9711791000975 705.1692056493422 642.2444238344942Q705.1692056493422 645.5176685688912 705.1692056493422 648.1931903517893L705.1692056493422 648.1931903517893Q708.869395349095 647.9939493679565 712.6549740419192 647.8800973771949Q716.4405527347434 647.7662453864332 720.1407424344964 647.5670044026003L720.1407424344964 647.5670044026003L720.1407424344964 656.5897746704595L674.2299271598696 656.5897746704595L674.2299271598696 649.8155812201426Q680.5771756448304 649.6163402363097 683.6511793953944 646.7415774695787Q686.7251831459583 643.8952777005379 687.4367580882185 638.5442341347414Q688.1483330304787 633.2216535666353 687.749851062813 625.4512551971541L687.749851062813 625.4512551971541L683.6511793953944 557.8231726847467Q683.4519384115615 554.5214649526595 683.2526974277287 551.2482202182628Q683.0249934462054 547.9749754838658 682.8257524623726 544.7017307494691Q682.6265114785397 541.4284860150722 682.4272704947069 538.126778282985L682.4272704947069 538.126778282985Q681.8010845455179 539.5783911651957 681.0895096032577 541.2007820335489Q680.3779346609975 542.8516358995926 679.7517487118087 544.7017307494691L679.7517487118087 544.7017307494691L633.641692453349 658.6391105041687Z " fill="#072c50" transform="matrix(0.31567722784425234,0,0,0.31567722784425234,0,115.37207257119171)"/><path d="M928.238654329159 564.5873602023196L921.2855985925111 564.5873602023196Q919.3527027892732 546.412770496873 908.6143927712841 536.3456048550083Q897.8760827532949 526.3052849881885 881.070627575142 526.3052849881885L881.070627575142 526.3052849881885Q870.8155415079625 526.3052849881885 861.8490526429416 530.6543005454741Q852.8557180028757 535.0033161027596 846.0905826915425 543.1107401663414Q839.3254473802094 551.2450100049681 835.4596557737334 562.6544643990815Q831.5938641672574 574.0370730181498 831.5938641672574 588.3458711171204L831.5938641672574 588.3458711171204Q831.5938641672574 606.520460822567 838.5469199039053 620.4265722958628Q845.4999756405532 634.3595295442035 857.2852708852962 642.0911127571558Q869.0974119050842 649.8226959701078 883.3793642290098 649.8226959701078L883.3793642290098 649.8226959701078Q895.9431869500569 649.8226959701078 908.1311688204745 644.1045458855288Q920.3191506908921 638.4132415759943 928.0507339038442 627.5943942328704L928.0507339038442 627.5943942328704L933.0708938372542 631.6481062646612Q924.7487035733126 643.0575606587747 915.0842245571224 649.2320889191185Q905.4197455409322 655.4334629545071 895.8626496249219 657.634816508195Q886.2787079338667 659.8630158369276 878.3592042955997 659.8630158369276L878.3592042955997 659.8630158369276Q863.8624857713146 659.8630158369276 851.7818870010768 654.654935478203Q839.701288230839 649.4200093444333 830.922719791133 640.0508338537377Q822.117305576382 630.6816583630423 817.3924491684668 618.225218742175Q812.6407469855067 605.7419333462626 812.6407469855067 591.2452148219775L812.6407469855067 591.2452148219775Q812.6407469855067 577.5270237739965 816.8018421174775 564.5873602023196Q820.9629372494481 551.6208508555977 829.2582817383447 541.1778443631033Q837.5804720022862 530.7616836456539 850.2516778235133 524.5603096102652Q862.8960378696954 518.3857813499216 879.7283388228934 518.3857813499216L879.7283388228934 518.3857813499216Q890.5471861660174 518.3857813499216 900.2116651822075 521.2851250547785Q909.8761441983978 524.1844687596356 918.7620957382836 530.1710765946646L918.7620957382836 530.1710765946646L917.7956478366647 519.7280701021702L928.238654329159 519.7280701021702L928.238654329159 564.5873602023196ZM995.2994003915009 659.8630158369276L995.2994003915009 659.8630158369276Q981.7691297688347 659.8630158369276 970.7623620003959 653.5811044764041Q959.7287484569121 647.2991931158804 953.2589166710735 636.1850422472617Q946.7890848852352 625.070891378643 946.7890848852352 610.7620932796726L946.7890848852352 610.7620932796726Q946.7890848852352 595.513693054128 953.1783793459387 583.3257111837104Q959.5408280315972 571.1377293132928 970.5744415750811 564.10413625151Q981.5812093435198 557.0436974146821 995.2994003915009 557.0436974146821L995.2994003915009 557.0436974146821Q1008.829671014167 557.0436974146821 1019.8632845576509 563.5135292005207Q1030.8700523260895 569.983360986359 1037.4472672121078 581.0169745298429Q1044.024482098126 592.0237422982816 1044.024482098126 606.1446199719373L1044.024482098126 606.1446199719373Q1044.024482098126 621.0171793468521 1037.527804537243 633.2856985424046Q1031.0579727514046 645.5542177379573 1020.0512049829657 652.7220396749649Q1009.0175914394819 659.8630158369276 995.2994003915009 659.8630158369276ZM996.8564553441093 652.1314326239756L996.8564553441093 652.1314326239756Q1007.0846956362437 652.1314326239756 1013.0981492463178 646.3327452142614Q1019.0847570813465 640.5340578045473 1021.6887972607091 631.2722654140316Q1024.2928374400713 621.9836272484711 1024.2928374400713 611.7285411812916L1024.2928374400713 611.7285411812916Q1024.2928374400713 603.0305100667204 1022.655245162328 594.6277824776439Q1021.0176528845847 586.2250548885675 1017.5277021287383 579.3525364770544Q1014.0645971479368 572.5068638405864 1008.5343674886723 568.4531518087956Q1003.0309836044529 564.3725940019597 995.2994003915009 564.3725940019597L995.2994003915009 564.3725940019597Q985.259080524681 564.3725940019597 978.8697860639776 570.1712814116738Q972.507337378319 575.969968821388 969.5006105732822 585.2586069869485Q966.4938837682452 594.547245152509 966.4938837682452 605.1781720703182L966.4938837682452 605.1781720703182Q966.4938837682452 617.1513877403761 969.7959140987767 627.8896977583652Q973.0710986542634 638.6011620013094 979.8362339655965 645.3662973126425Q986.6013692769296 652.1314326239756 996.8564553441093 652.1314326239756ZM1099.8636941916693 656.7757517067557L1060.4540964256494 656.7757517067557L1060.4540964256494 650.9770642970416Q1066.4407042606786 650.9770642970416 1068.749440914546 647.9703374920048Q1071.085023343459 644.9904564620128 1071.4608641940886 639.674993003108Q1071.8367050447182 634.3595295442035 1071.8367050447182 627.4064738075556L1071.8367050447182 627.4064738075556L1072.0514712450777 583.3257111837104Q1072.0514712450777 580.2384470535385 1072.1320085702127 577.1511829233668Q1072.2393916703927 574.0370730181498 1072.803152946337 570.7618884626631L1072.803152946337 570.7618884626631Q1069.3400479655356 570.949808887978 1065.957480309869 571.1377293132928Q1062.5749126542023 571.3524955136527 1059.0849618983561 571.5404159389675L1059.0849618983561 571.5404159389675L1059.0849618983561 563.4061461003407Q1067.5950725876123 563.4061461003407 1071.9440881448977 562.6544643990815Q1076.2931037021835 561.8759369227773 1078.4139199307365 560.7215685958435Q1080.534736159289 559.5403544938647 1081.9038706865826 558.1980657416161L1081.9038706865826 558.1980657416161L1087.5146376709822 558.1980657416161Q1087.7025580962968 559.5403544938647 1087.7830954214319 561.2853298717879Q1087.8904785216118 563.0303052497111 1088.0783989469264 565.151121478264Q1088.2663193722415 567.2719377068167 1088.2663193722415 569.983360986359L1088.2663193722415 569.983360986359Q1092.5347976043918 566.3054898051978 1097.6623406379817 563.4061461003407Q1102.7630378965264 560.5068023954836 1108.481187981106 558.7886727926054Q1114.17249229064 557.0436974146821 1119.7832592750392 557.0436974146821L1119.7832592750392 557.0436974146821Q1136.588714453192 557.0436974146821 1144.3202976661441 567.5672412323115Q1152.0518808790966 578.1176308249858 1152.0518808790966 600.3459325622232L1152.0518808790966 600.3459325622232L1152.0518808790966 636.2924253474416Q1152.0518808790966 640.1582169539176 1151.9713435539616 643.1380979839096Q1151.8639604537816 646.1448247889466 1151.3001991778374 649.4200093444333L1151.3001991778374 649.4200093444333Q1154.387463308009 649.2320889191185 1157.3673443380012 649.1515515939834Q1160.3740711430378 649.0441684938037 1163.46133527321 648.8562480684889L1163.46133527321 648.8562480684889L1163.46133527321 656.7757517067557L1124.024891732145 656.7757517067557L1124.024891732145 650.9770642970416Q1130.0383453422187 650.9770642970416 1132.3470819960867 647.9703374920048Q1134.6558186499542 644.9904564620128 1135.0585052756287 639.674993003108Q1135.4343461262583 634.3595295442035 1135.4343461262583 627.4064738075556L1135.4343461262583 627.4064738075556L1135.4343461262583 600.3459325622232Q1135.2464257009437 583.70155203434 1129.9309622420387 575.2182871201287Q1124.6154987831342 566.7081764308724 1113.206044389021 566.8960968561871L1113.206044389021 566.8960968561871Q1106.252988652373 567.0840172815019 1099.5952364412196 570.5739680373483Q1092.9106384550214 574.0370730181498 1088.481085572601 579.4599195772344L1088.481085572601 579.4599195772344Q1088.669005997916 581.0169745298429 1088.669005997916 582.9498703330808Q1088.669005997916 584.8827661363189 1088.669005997916 587.0035823648718L1088.669005997916 587.0035823648718L1088.481085572601 636.2924253474416Q1088.481085572601 640.1582169539176 1088.373702472421 643.1380979839096Q1088.2663193722415 646.1448247889466 1087.7025580962968 649.4200093444333L1087.7025580962968 649.4200093444333Q1090.789822226469 649.2320889191185 1093.7965490315055 649.1515515939834Q1096.7764300614976 649.0441684938037 1099.8636941916693 648.8562480684889L1099.8636941916693 648.8562480684889L1099.8636941916693 656.7757517067557ZM1222.226736846655 657.366358757745L1214.495153633703 657.366358757745L1186.844005337381 594.3324789521494Q1183.7567412072094 587.0035823648718 1182.011765829286 581.7686562311021Q1180.2936362264077 576.5605758723773 1179.5956460752386 573.0706251165309Q1178.924501699114 569.6075201357294 1178.7365812737994 567.4867039071767L1178.7365812737994 567.4867039071767L1170.4143910098578 568.0504651831211L1170.4143910098578 560.130961544854L1205.9850429444464 560.130961544854L1205.9850429444464 565.9296489545682Q1200.1863555347322 565.9296489545682 1198.5487632569893 568.9363757596052Q1196.9111709792455 571.9162567895971 1198.0655393061797 576.8558793978721Q1199.2199076331135 581.7686562311021 1201.555490062026 587.3794232155014L1201.555490062026 587.3794232155014L1216.428049436941 621.3930201974817Q1217.9851043895492 624.6950505280133 1219.434776241978 628.2655386089948Q1220.8844480944063 631.836026689976 1222.226736846655 635.7018182964523L1222.226736846655 635.7018182964523L1222.4146572719696 635.7018182964523Q1223.3811051735888 632.8024745915952 1224.6428566007025 629.5272900361085Q1225.9046080278163 626.2252597055767 1226.8710559294354 623.1379955754051L1226.8710559294354 623.1379955754051L1242.3342223553395 580.8022083294829Q1243.864431532903 576.1847350217477 1245.6094069108262 572.6947842659013Q1247.3543822887495 569.2048335100549 1248.1329097650537 567.4867039071767L1248.1329097650537 567.4867039071767L1235.7570074693213 568.0504651831211L1235.7570074693213 560.130961544854L1266.3074994705003 560.130961544854L1266.3074994705003 565.9296489545682Q1262.0390212383495 565.9296489545682 1259.1396775334924 568.8289926594252Q1256.2403338286354 571.7283363642823 1253.6362936492733 577.5270237739965Q1251.0322534699108 583.3257111837104 1247.5423027140641 592.0237422982816L1247.5423027140641 592.0237422982816L1222.226736846655 657.366358757745ZM1322.1467115640435 659.8630158369276L1322.1467115640435 659.8630158369276Q1308.8312071417367 659.8630158369276 1298.0928971237477 653.5811044764041Q1287.3545871057586 647.2991931158804 1281.1800588454153 635.809201396632Q1275.0055305850715 624.2923639023388 1275.0055305850715 608.6412770511197L1275.0055305850715 608.6412770511197Q1275.0055305850715 595.1110064284535 1281.0726757452353 583.3257111837104Q1287.166666680444 571.5404159389675 1298.2002802239276 564.2920566768248Q1309.2070479923668 557.0436974146821 1323.7037665166517 557.0436974146821L1323.7037665166517 557.0436974146821Q1331.8111905802334 557.0436974146821 1338.8716294170613 559.6477375940445Q1345.9320682538892 562.251777773407 1351.3549148129737 567.5672412323115Q1356.7509155970133 572.8827046912161 1359.838179727185 580.9095914296629Q1362.952289632402 588.9364781681097 1362.952289632402 599.7553255112339L1362.952289632402 599.7553255112339L1294.898249893396 600.9096938381676Q1294.898249893396 615.5943327877676 1298.0928971237477 626.7084836563863Q1301.2875443540997 637.822634525005 1308.4285205160622 643.9166254602139Q1315.59634245307 650.0106163954226 1326.7910306468239 650.0106163954226L1326.7910306468239 650.0106163954226Q1332.7776384818526 650.0106163954226 1339.0595498423763 647.8898001668697Q1345.3414612029 645.768983938317 1350.7643077619841 642.0911127571558Q1356.1871543210686 638.4132415759943 1359.4623388765553 633.956842918529L1359.4623388765553 633.956842918529L1364.1066579593357 637.822634525005Q1358.8717318255663 645.9569043636318 1351.5428352382887 650.7891438717268Q1344.1870928759658 655.621383379822 1336.4555096630138 657.7421996083747Q1328.7239264500618 659.8630158369276 1322.1467115640435 659.8630158369276ZM1295.4888569443856 592.8022697745857L1295.4888569443856 592.8022697745857L1344.7776999269554 592.8022697745857Q1344.7776999269554 585.8492140379378 1342.7374210235375 579.3525364770544Q1340.7239878951646 572.8827046912161 1336.0796688123842 568.7216095592453Q1331.4353497296038 564.5873602023196 1323.8916869419668 564.5873602023196L1323.8916869419668 564.5873602023196Q1312.696998748213 564.5873602023196 1305.2338732857106 571.2451124134727Q1297.7975935982531 577.9028646246259 1295.4888569443856 592.8022697745857ZM1380.1335856611845 656.7757517067557L1380.1335856611845 650.9770642970416Q1386.147039271258 650.9770642970416 1388.455775925126 647.9703374920048Q1390.7645125789936 644.9904564620128 1391.1671992046681 639.674993003108Q1391.5430400552978 634.3595295442035 1391.5430400552978 627.4064738075556L1391.5430400552978 627.4064738075556L1391.5430400552978 583.3257111837104Q1391.5430400552978 580.2384470535385 1391.6504231554777 577.1511829233668Q1391.7309604806128 574.0370730181498 1392.3215675316019 570.7618884626631L1392.3215675316019 570.7618884626631Q1388.8316167757557 570.949808887978 1385.449049120089 571.0571919881579Q1382.0664814644224 571.1377293132928 1378.603376483621 571.3524955136527L1378.603376483621 571.3524955136527L1378.603376483621 563.4061461003407L1384.5899843186498 563.4061461003407Q1392.9121745825914 563.4061461003407 1396.0799760378982 561.7685538225974Q1399.2746232682498 560.130961544854 1401.3954394968027 558.1980657416161L1401.3954394968027 558.1980657416161L1407.0062064812023 558.1980657416161Q1407.4088931068768 561.2853298717879 1407.5968135321914 565.8222658543882Q1407.7847339575064 570.3860476120335 1407.972654382821 577.3391033486816L1407.972654382821 577.3391033486816Q1410.871998087678 572.5068638405864 1415.892158021088 567.8625447578063Q1420.939163729543 563.2182256750259 1427.2210750900667 560.130961544854Q1433.5029864505905 557.0436974146821 1440.456042187238 557.0436974146821L1440.456042187238 557.0436974146821Q1445.8520429712776 557.0436974146821 1449.9326007781137 559.9430411195392Q1453.9863128099046 562.8423848243963 1453.9863128099046 569.2048335100549L1453.9863128099046 569.2048335100549Q1453.9863128099046 570.7618884626631 1453.0198649082854 572.990087791396Q1452.0534170066662 575.2182871201287 1449.9326007781137 576.8558793978721Q1447.784938774516 578.4934716756154 1444.3218337937142 578.4934716756154L1444.3218337937142 578.4934716756154Q1440.0533555615634 578.3055512503006 1437.5566984823813 575.1109040199487Q1435.0331956281539 571.9162567895971 1435.623802679143 567.6746243324915L1435.623802679143 567.6746243324915Q1430.791563171048 567.4867039071767 1425.664020137458 570.1712814116738Q1420.5364771038685 572.8827046912161 1416.1069242214476 577.6344068741762Q1411.6505255639822 582.3592632820914 1408.160574808136 588.7485577427949L1408.160574808136 588.7485577427949L1408.3753410084955 636.2924253474416Q1408.3753410084955 640.1582169539176 1408.267957908316 643.1380979839096Q1408.160574808136 646.1448247889466 1407.5968135321914 649.4200093444333L1407.5968135321914 649.4200093444333Q1410.6840776623635 649.2320889191185 1413.6908044674 649.1515515939834Q1416.6706854973922 649.0441684938037 1419.757949627564 648.8562480684889L1419.757949627564 648.8562480684889L1419.757949627564 656.7757517067557L1380.1335856611845 656.7757517067557ZM1503.463076217789 659.8630158369276L1503.463076217789 659.8630158369276Q1493.798597201599 659.8630158369276 1486.2549344139616 657.2589756575653Q1478.711271626324 654.654935478203 1473.8790321182291 651.3529051476712L1473.8790321182291 651.3529051476712L1474.6575595945333 658.1180404590043L1466.5501355309516 658.1180404590043L1465.3957672040178 624.8829709533281L1471.3823750390466 624.8829709533281Q1471.7582158896762 632.8024745915952 1475.811927921467 639.0843859521187Q1479.8924857283032 645.3662973126425 1486.2549344139616 648.8562480684889Q1492.6442288746653 652.3193530492904 1499.9731254619428 652.3193530492904L1499.9731254619428 652.3193530492904Q1505.0201311703977 652.3193530492904 1509.8523706784927 650.681760771547Q1514.6846101865876 649.0441684938037 1517.9597947420743 645.661600838137Q1521.234979297561 642.2790331824706 1521.234979297561 637.0709528237458L1521.234979297561 637.0709528237458Q1521.234979297561 631.6481062646612 1518.0671778422543 628.07761818368Q1514.8725306119027 624.5071301026985 1509.6376044781327 621.7957068231563Q1504.4295241194081 619.084283543614 1498.442916284379 616.7755468897465L1498.442916284379 616.7755468897465Q1492.6442288746653 614.4399644608338 1486.845541464951 611.9433073816513Q1481.046854055237 609.4198045274238 1476.107231446962 605.9298537715774Q1471.194454613732 602.4667487907759 1468.295110908875 597.4465888573661Q1465.3957672040178 592.3995831489112 1465.3957672040178 585.0706865616337L1465.3957672040178 585.0706865616337Q1465.3957672040178 581.0169745298429 1466.9259763815812 576.1847350217477Q1468.4830313341895 571.3524955136527 1472.1609025153507 567.0034799563671Q1475.811927921467 562.6544643990815 1482.2012223821707 559.8356580193594Q1488.5905168428744 557.0436974146821 1498.442916284379 557.0436974146821L1498.442916284379 557.0436974146821Q1503.650996643104 557.0436974146821 1510.0402911038072 558.7886727926054Q1516.4027397894656 560.5068023954836 1522.4161933995397 565.3390419035788L1522.4161933995397 565.3390419035788L1522.0135067738652 558.0101453163013L1530.1477766124917 558.0101453163013L1530.1477766124917 591.8358218729668L1523.946402577103 591.8358218729668Q1523.5705617264734 585.0706865616337 1520.8591384469314 578.7887752011102Q1518.1477151673894 572.5068638405864 1512.9396348086643 568.3457687086157Q1507.7047086748948 564.1846735766449 1499.4093641859981 564.1846735766449L1499.4093641859981 564.1846735766449Q1490.5234126461123 564.1846735766449 1485.4764069376574 568.6410722341104Q1480.4562470042474 573.0706251165309 1480.4562470042474 578.869312526245L1480.4562470042474 578.869312526245Q1480.4562470042474 584.8827661363189 1484.2415012855886 588.8290950679298Q1487.9999097918849 592.8022697745857 1493.9865176269136 595.7016134794428Q1499.9731254619428 598.6009571842999 1506.7382607732757 601.3123804638421L1506.7382607732757 601.3123804638421Q1514.094003135598 604.399644594014 1521.047058872246 608.0775157751752Q1528.000114608894 611.7285411812916 1532.4565132663597 617.258770840556Q1536.912911923825 622.7621547247754 1536.912911923825 631.4601858393464L1536.912911923825 631.4601858393464Q1536.912911923825 641.1246648555366 1531.9732893155501 647.4871135411952Q1527.0336667072752 653.8764080018987 1519.4094665945026 656.8831348069357Q1511.7852664817306 659.8630158369276 1503.463076217789 659.8630158369276ZM1639.7322303460705 656.7757517067557L1612.0810820497486 656.7757517067557Q1611.517320773804 653.500567151269 1611.3294003484893 650.9770642970416Q1611.1146341481294 648.4535614428141 1610.7387932975003 645.768983938317L1610.7387932975003 645.768983938317Q1604.1615784114815 652.3193530492904 1596.5373782987094 656.1046073306316Q1588.886332410892 659.8630158369276 1580.4030674966807 659.8630158369276L1580.4030674966807 659.8630158369276Q1565.6915827720359 659.8630158369276 1558.550606610073 653.2052636257745Q1551.4096304481104 646.5206656395762 1551.4096304481104 636.8561866233861L1551.4096304481104 636.8561866233861Q1551.4096304481104 627.9702350835 1556.91301433233 621.5004032976617Q1562.4163982165492 615.0305715118232 1571.2218124313003 610.8694763798524Q1580.0003808710062 606.7083812478818 1590.3360042633208 604.6949481195088Q1600.6984734306802 602.6546692160907 1610.3629524468702 602.8425896414055L1610.3629524468702 602.8425896414055L1610.3629524468702 590.8693739713478Q1610.3629524468702 584.1042386600147 1609.1817383448915 578.1176308249858Q1608.0273700179578 572.1041772149119 1604.1615784114815 568.2383856084359Q1600.2957868050057 564.3725940019597 1591.785676115749 564.1846735766449L1591.785676115749 564.1846735766449Q1586.2017549063949 563.9967531513302 1580.2956843965012 566.3054898051978Q1574.389613886607 568.6410722341104 1571.70503638211 574.2518392185098L1571.70503638211 574.2518392185098Q1573.2352455596729 575.7820483960732 1573.7184695104825 577.822327299491Q1574.201693461292 579.835760427864 1574.201693461292 581.5807358057873L1574.201693461292 581.5807358057873Q1574.201693461292 583.9163182346999 1572.2687976580542 586.8961992646919Q1570.3359018548163 589.9029260697287 1565.5036623467208 589.7150056444138L1565.5036623467208 589.7150056444138Q1561.44995031493 589.7150056444138 1559.329134086377 586.8961992646919Q1557.2083178578246 584.1042386600147 1557.2083178578246 580.2384470535385L1557.2083178578246 580.2384470535385Q1557.2083178578246 573.6612321675202 1562.1210946910546 568.4531518087956Q1567.0607172993296 563.2182256750259 1575.7587484139008 560.130961544854Q1584.4567795284715 557.0436974146821 1595.4635472969107 557.0436974146821L1595.4635472969107 557.0436974146821Q1611.705241199119 557.0436974146821 1619.436824412071 565.6343454290734Q1627.1684076250235 574.2518392185098 1626.9804871997085 592.8022697745857L1626.9804871997085 592.8022697745857Q1626.9804871997085 599.9432459365485 1626.9804871997085 607.1916051986911Q1626.9804871997085 614.4399644608338 1626.8731040995285 621.6883237229765Q1626.7925667743934 628.936682985119 1626.7925667743934 636.2924253474416L1626.7925667743934 636.2924253474416Q1626.7925667743934 639.3796894776135 1626.577800574034 642.4669536077854Q1626.389880148719 645.5542177379573 1626.0140392980893 649.4200093444333L1626.0140392980893 649.4200093444333Q1629.477144278891 649.2320889191185 1632.8597119345573 649.0441684938037Q1636.242279590224 648.8562480684889 1639.7322303460705 648.668327643174L1639.7322303460705 648.668327643174L1639.7322303460705 656.7757517067557ZM1610.3629524468702 609.4198045274238L1610.3629524468702 609.4198045274238Q1603.7857375608519 609.6077249527386 1596.5373782987094 611.0573968051672Q1589.289019036567 612.5070686575957 1583.1950281013578 615.4064123624528Q1577.1010371661491 618.3057560673099 1573.3426286598528 623.05745825027Q1569.5573743785117 627.7823146581852 1569.7721405788716 634.5474499695183L1569.7721405788716 634.5474499695183Q1570.1479814295012 641.688426131481 1574.496996986787 645.2857599875074Q1578.8460125440724 648.8562480684889 1584.8326203791012 648.8562480684889L1584.8326203791012 648.8562480684889Q1592.7521240173683 648.8562480684889 1598.6581945272624 645.8495212634518Q1604.564265037156 642.8696402334599 1610.3629524468702 637.4467936743754L1610.3629524468702 637.4467936743754Q1610.1481862465107 635.3259774458227 1610.1481862465107 632.8024745915952Q1610.1481862465107 630.3058175124127 1610.1481862465107 627.5943942328704L1610.1481862465107 627.5943942328704Q1610.1481862465107 626.6279463312515 1610.2555693466907 621.3930201974817Q1610.3629524468702 616.1849398387571 1610.3629524468702 609.4198045274238ZM1620.2153518883752 510.8421185622842L1625.8261188727747 513.7414622671413Q1622.7120089675577 523.2180208580166 1616.9133215578436 527.6475737404371Q1611.1146341481294 532.1039723979027 1606.0944742147199 532.1039723979027L1606.0944742147199 532.1039723979027Q1600.1078663796907 532.1039723979027 1595.7588508224053 529.4999322185402Q1591.4098352651195 526.8958920391779 1587.9198845092733 524.2650060847706Q1584.4567795284715 521.6609659054081 1580.7789083473103 521.6609659054081L1580.7789083473103 521.6609659054081Q1577.2889575914642 521.6609659054081 1573.3426286598528 523.5133243835113Q1569.369453953197 525.3388370865695 1566.658030673655 529.7952357440349L1566.658030673655 529.7952357440349L1560.859343263941 526.4932054135033Q1563.382846118168 519.7280701021702 1569.288916628062 514.895830594075Q1575.1681413629112 510.06359108598 1580.5909879219957 509.8756706606652L1580.5909879219957 509.8756706606652Q1586.7655161823395 509.6877502353504 1590.8192282141304 512.2917904147128Q1594.899786020966 514.895830594075 1598.3628910017674 517.4998707734374Q1601.852841757614 520.1307567278448 1606.0944742147199 520.1307567278448L1606.0944742147199 520.1307567278448Q1610.3629524468702 520.1307567278448 1614.1213609531665 517.6072538736173Q1617.8797694594628 515.0837510193899 1620.2153518883752 510.8421185622842L1620.2153518883752 510.8421185622842ZM1700.9942889986983 659.8630158369276L1700.9942889986983 659.8630158369276Q1687.464018376032 659.8630158369276 1676.4572506075929 653.5811044764041Q1665.4504828391546 647.2991931158804 1658.953805278271 636.1850422472617Q1652.4839734924326 625.070891378643 1652.4839734924326 610.7620932796726L1652.4839734924326 610.7620932796726Q1652.4839734924326 595.513693054128 1658.8732679531358 583.3257111837104Q1665.2357166387947 571.1377293132928 1676.2693301822783 564.10413625151Q1687.276097950717 557.0436974146821 1700.9942889986983 557.0436974146821L1700.9942889986983 557.0436974146821Q1714.5245596213645 557.0436974146821 1725.558173164848 563.5135292005207Q1736.5649409332873 569.983360986359 1743.1421558193051 581.0169745298429Q1749.7193707053234 592.0237422982816 1749.7193707053234 606.1446199719373L1749.7193707053234 606.1446199719373Q1749.7193707053234 621.0171793468521 1743.249538919485 633.2856985424046Q1736.7528613586019 645.5542177379573 1725.7460935901631 652.7220396749649Q1714.739325821724 659.8630158369276 1700.9942889986983 659.8630158369276ZM1702.5513439513065 652.1314326239756L1702.5513439513065 652.1314326239756Q1712.806430018486 652.1314326239756 1718.7930378535152 646.3327452142614Q1724.779645688544 640.5340578045473 1727.3836858679065 631.2722654140316Q1729.9877260472686 621.9836272484711 1729.9877260472686 611.7285411812916L1729.9877260472686 611.7285411812916Q1729.9877260472686 603.0305100667204 1728.3501337695252 594.6277824776439Q1726.7125414917823 586.2250548885675 1723.2225907359357 579.3525364770544Q1719.759485755134 572.5068638405864 1714.2561018709148 568.4531518087956Q1708.7258722116503 564.3725940019597 1700.9942889986983 564.3725940019597L1700.9942889986983 564.3725940019597Q1690.9539691318782 564.3725940019597 1684.564674671175 570.1712814116738Q1678.2022259855166 575.969968821388 1675.1954991804796 585.2586069869485Q1672.2156181504874 594.547245152509 1672.2156181504874 605.1781720703182L1672.2156181504874 605.1781720703182Q1672.2156181504874 617.1513877403761 1675.4908027059741 627.8896977583652Q1678.7659872614609 638.6011620013094 1685.5311225727937 645.3662973126425Q1692.296257884127 652.1314326239756 1702.5513439513065 652.1314326239756ZM1858.337376537283 659.8630158369276L1858.337376537283 659.8630158369276Q1846.5520812925402 659.8630158369276 1837.0755227016648 653.9837911020786Q1827.5989641107894 648.0777205921845 1822.0955802265698 637.0709528237458Q1816.5921963423507 626.0373392802621 1816.5921963423507 611.1647799053471L1816.5921963423507 611.1647799053471Q1816.5921963423507 595.2989268537683 1822.981490803054 583.1377907583956Q1829.3439394887127 570.949808887978 1840.646010782646 563.9967531513302Q1851.9749278516247 557.0436974146821 1866.2568801755501 557.0436974146821L1866.2568801755501 557.0436974146821Q1872.6461746362538 557.0436974146821 1878.928085996777 558.6812896924255Q1885.2099973573008 560.3188819701688 1888.887868538462 562.4396981987218L1888.887868538462 562.4396981987218L1888.887868538462 535.9697640043787Q1888.887868538462 532.8824998742068 1888.9684058635971 530.0636934944846Q1889.075788963777 527.2717328898075 1889.4516298144067 523.4059412833315L1889.4516298144067 523.4059412833315Q1885.988524833605 523.5938617086463 1882.6059571779383 523.7817821339611Q1879.223389522272 523.9965483343208 1875.7334387664255 524.1844687596356L1875.7334387664255 524.1844687596356L1875.7334387664255 516.0501989210088Q1884.2435494556821 516.0501989210088 1888.887868538462 515.2985172197497Q1893.5321876212424 514.5199897434454 1895.94830737529 513.3656214165117Q1898.3644271293374 512.1844073145328 1899.7067158815862 510.8421185622842L1899.7067158815862 510.8421185622842L1905.3174828659853 510.8421185622842L1905.3174828659853 636.2924253474416Q1905.3174828659853 639.3796894776135 1905.1295624406707 642.4669536077854Q1904.9147962403108 645.5542177379573 1904.5389553896812 649.4200093444333L1904.5389553896812 649.4200093444333Q1908.0289061455273 649.2320889191185 1911.4114738011945 649.0441684938037Q1914.7940414568607 648.8562480684889 1918.2571464376624 648.668327643174L1918.2571464376624 648.668327643174L1918.2571464376624 656.7757517067557L1890.6328439163854 656.7757517067557Q1890.0422368653958 653.8764080018987 1889.7469333399013 651.4602882478512Q1889.4516298144067 649.0441684938037 1889.2637093890917 646.7354318399359L1889.2637093890917 646.7354318399359Q1883.867708605052 652.7220396749649 1875.9213591917405 656.2925277559461Q1868.0018555534734 659.8630158369276 1858.337376537283 659.8630158369276ZM1865.2904322739314 650.3864572460523L1865.2904322739314 650.3864572460523Q1871.6797267346346 650.3864572460523 1878.149558520473 646.7354318399359Q1884.6193903063113 643.0575606587747 1888.887868538462 637.6347140996902L1888.887868538462 637.6347140996902Q1888.699948113147 635.3259774458227 1888.699948113147 632.7219372664601Q1888.699948113147 630.091051312053 1888.699948113147 627.0037871818811L1888.699948113147 627.0037871818811L1888.887868538462 571.3524955136527Q1884.2435494556821 567.8625447578063 1878.7401655714625 566.2249524800629Q1873.236781687243 564.5873602023196 1867.4380942775292 564.5873602023196L1867.4380942775292 564.5873602023196Q1857.7736152613388 564.5873602023196 1850.605793324331 570.1712814116738Q1843.4648171623685 575.7820483960732 1839.7869459812068 585.8492140379378Q1836.1090748000456 595.8895339047576 1836.5117614257201 609.4198045274238L1836.5117614257201 609.4198045274238Q1836.8876022763498 621.2050997721669 1840.2701699320169 630.4937379377275Q1843.652737587683 639.7555303282431 1849.9346489482068 645.0709937871477Q1856.2165603087305 650.3864572460523 1865.2904322739314 650.3864572460523ZM1979.331284664975 659.8630158369276L1979.331284664975 659.8630158369276Q1966.0157802426688 659.8630158369276 1955.2774702246797 653.5811044764041Q1944.5391602066907 647.2991931158804 1938.364631946347 635.809201396632Q1932.190103686003 624.2923639023388 1932.190103686003 608.6412770511197L1932.190103686003 608.6412770511197Q1932.190103686003 595.1110064284535 1938.257248846167 583.3257111837104Q1944.3512397813756 571.5404159389675 1955.3848533248597 564.2920566768248Q1966.391621093298 557.0436974146821 1980.8883396175838 557.0436974146821L1980.8883396175838 557.0436974146821Q1988.995763681165 557.0436974146821 1996.0562025179934 559.6477375940445Q2003.1166413548208 562.251777773407 2008.5394879139053 567.5672412323115Q2013.935488697945 572.8827046912161 2017.0227528281166 580.9095914296629Q2020.1368627333336 588.9364781681097 2020.1368627333336 599.7553255112339L2020.1368627333336 599.7553255112339L1952.0828229943277 600.9096938381676Q1952.0828229943277 615.5943327877676 1955.2774702246797 626.7084836563863Q1958.4721174550314 637.822634525005 1965.6130936169939 643.9166254602139Q1972.7809155540017 650.0106163954226 1983.9756037477555 650.0106163954226L1983.9756037477555 650.0106163954226Q1989.9622115827842 650.0106163954226 1996.244122943308 647.8898001668697Q2002.5260343038317 645.768983938317 2007.9488808629162 642.0911127571558Q2013.3717274220003 638.4132415759943 2016.6469119774874 633.956842918529L2016.6469119774874 633.956842918529L2021.2912310602674 637.822634525005Q2016.056304926498 645.9569043636318 2008.7274083392203 650.7891438717268Q2001.371665976898 655.621383379822 1993.6400827639454 657.7421996083747Q1985.9084995509934 659.8630158369276 1979.331284664975 659.8630158369276ZM1952.6734300453172 592.8022697745857L1952.6734300453172 592.8022697745857L2001.962273027887 592.8022697745857Q2001.962273027887 585.8492140379378 1999.9219941244692 579.3525364770544Q1997.9085609960962 572.8827046912161 1993.2642419133158 568.7216095592453Q1988.6199228305359 564.5873602023196 1981.0762600428984 564.5873602023196L1981.0762600428984 564.5873602023196Q1969.8815718491446 564.5873602023196 1962.4184463866422 571.2451124134727Q1954.9821666991847 577.9028646246259 1952.6734300453172 592.8022697745857ZM2168.969839582662 658.7086475099939L2163.171152172948 658.7086475099939Q2154.661041483692 639.3796894776135 2145.9630103691206 620.1581145454129Q2137.2649792545494 600.9096938381676 2128.942788990608 581.2048949551577L2128.942788990608 581.2048949551577Q2126.231365711066 575.003520919769 2123.6273255317033 568.7216095592453Q2121.023285352341 562.4396981987218 2118.6071655982932 556.0772495130632Q2116.1910458442458 549.6879550523597 2113.6675429900183 543.3255063667011L2113.6675429900183 543.3255063667011Q2113.6675429900183 545.4463225952541 2113.5870056648837 547.5671388238068Q2113.4796225647037 549.6879550523597 2113.4796225647037 551.8087712809125L2113.4796225647037 551.8087712809125Q2113.291702139389 558.7886727926054 2112.996398613894 568.5336891339305Q2112.7010950883996 578.3055512503006 2112.32525423777 589.4197021189193Q2111.9494133871403 600.533852987538 2111.7346471867804 611.6480038561567Q2111.5467267614654 622.7621547247754 2111.358806336151 632.6145541662804L2111.358806336151 632.6145541662804Q2111.1708859108358 636.8561866233861 2111.0635028106562 641.1246648555366Q2110.982965485521 645.3662973126425 2110.5802788598467 649.0441684938037L2110.5802788598467 649.0441684938037Q2114.258150041008 648.8562480684889 2117.828638121989 648.668327643174Q2121.399126202971 648.4535614428141 2125.076997384132 648.2656410174993L2125.076997384132 648.2656410174993L2125.076997384132 656.7757517067557L2088.1640566972947 656.7757517067557L2088.1640566972947 650.3864572460523Q2094.1506645323234 650.1985368207374 2096.9694709120454 647.78241706669Q2099.7614315167225 645.3662973126425 2100.5399589930266 641.3125852808514Q2101.3184864693308 637.2588732490606 2101.506406894646 632.6145541662804L2101.506406894646 632.6145541662804L2105.184278075807 544.479874693635Q2105.372198501122 540.6140830871589 2105.4527358262567 536.7482914806828Q2105.5601189264366 532.8824998742068 2105.7480393517517 529.2046286930456L2105.7480393517517 529.2046286930456Q2102.28493437095 529.3925491183604 2098.794983615104 529.4999322185402Q2095.305032859257 529.5804695436751 2091.841927878456 529.7952357440349L2091.841927878456 529.7952357440349L2091.841927878456 521.4730454800933L2121.399126202971 521.4730454800933L2154.661041483692 598.1982705586254Q2157.1576985628744 603.9969579683395 2159.573818316922 609.7956453780535Q2161.9899380709694 615.5943327877676 2164.620824025377 621.3930201974817Q2167.224864204739 627.1917076071959 2169.7215212839214 633.2051612172697L2169.7215212839214 633.2051612172697L2170.124207909596 633.2051612172697Q2172.245024138149 627.9702350835 2175.144367843006 620.7218758213573Q2178.043711547863 613.4735165592149 2179.976607351101 608.2654362004901L2179.976607351101 608.2654362004901Q2188.486718040357 587.0035823648718 2197.667973105738 565.6343454290734Q2206.8492281711187 544.2919542683202 2215.735179711005 521.4730454800933L2215.735179711005 521.4730454800933L2244.3527759089457 521.4730454800933L2244.3527759089457 527.8623399407968Q2239.5205364008507 527.6475737404371 2236.4064264956337 529.687852643855Q2233.319162365462 531.728131547273 2231.9768736132132 536.3456048550083Q2230.6077390859195 540.9899239377885 2231.010425711594 548.9094275760555L2231.010425711594 548.9094275760555L2236.030585645004 636.8561866233861Q2236.4064264956337 640.1582169539176 2236.4064264956337 643.2454810840895Q2236.4064264956337 646.3327452142614 2236.4064264956337 648.8562480684889L2236.4064264956337 648.8562480684889Q2239.8963772514803 648.668327643174 2243.4668653324616 648.5609445429941Q2247.037353413443 648.4535614428141 2250.527304169289 648.2656410174993L2250.527304169289 648.2656410174993L2250.527304169289 656.7757517067557L2207.2250690217484 656.7757517067557L2207.2250690217484 650.3864572460523Q2213.211676856777 650.1985368207374 2216.111020561634 647.4871135411952Q2219.0103642664913 644.802536036698 2219.7083544176608 639.7555303282431Q2220.379498793785 634.7353703948331 2219.9768121681104 627.4064738075556L2219.9768121681104 627.4064738075556L2216.111020561634 563.6209123007005Q2215.9231001363196 560.5068023954836 2215.735179711005 557.4195382653118Q2215.54725928569 554.33227413514 2215.3593388603754 551.2450100049681Q2215.1445726600155 548.1577458747963 2214.9566522347004 545.0436359695794L2214.9566522347004 545.0436359695794Q2214.392890958756 546.412770496873 2213.694900807587 547.9429796744364Q2213.0237564314625 549.5000346270449 2212.459995155518 551.2450100049681L2212.459995155518 551.2450100049681L2168.969839582662 658.7086475099939ZM2313.53433819984 659.8630158369276L2313.53433819984 659.8630158369276Q2300.004067577174 659.8630158369276 2288.997299808735 653.5811044764041Q2277.9636862652515 647.2991931158804 2271.493854479413 636.1850422472617Q2265.024022693575 625.070891378643 2265.024022693575 610.7620932796726L2265.024022693575 610.7620932796726Q2265.024022693575 595.513693054128 2271.413317154278 583.3257111837104Q2277.775765839937 571.1377293132928 2288.8093793834205 564.10413625151Q2299.816147151859 557.0436974146821 2313.53433819984 557.0436974146821L2313.53433819984 557.0436974146821Q2327.064608822506 557.0436974146821 2338.0982223659903 563.5135292005207Q2349.104990134429 569.983360986359 2355.6822050204473 581.0169745298429Q2362.2594199064656 592.0237422982816 2362.2594199064656 606.1446199719373L2362.2594199064656 606.1446199719373Q2362.2594199064656 621.0171793468521 2355.7627423455824 633.2856985424046Q2349.2929105597436 645.5542177379573 2338.2861427913053 652.7220396749649Q2327.2525292478213 659.8630158369276 2313.53433819984 659.8630158369276ZM2315.0913931524487 652.1314326239756L2315.0913931524487 652.1314326239756Q2325.319633444583 652.1314326239756 2331.333087054657 646.3327452142614Q2337.319694889686 640.5340578045473 2339.9237350690482 631.2722654140316Q2342.5277752484108 621.9836272484711 2342.5277752484108 611.7285411812916L2342.5277752484108 611.7285411812916Q2342.5277752484108 603.0305100667204 2340.8901829706674 594.6277824776439Q2339.252590692924 586.2250548885675 2335.7626399370774 579.3525364770544Q2332.299534956276 572.5068638405864 2326.769305297012 568.4531518087956Q2321.2659214127925 564.3725940019597 2313.53433819984 564.3725940019597L2313.53433819984 564.3725940019597Q2303.4940183330204 564.3725940019597 2297.1047238723168 570.1712814116738Q2290.7422751866584 575.969968821388 2287.7355483816214 585.2586069869485Q2284.7288215765843 594.547245152509 2284.7288215765843 605.1781720703182L2284.7288215765843 605.1781720703182Q2284.7288215765843 617.1513877403761 2288.0308519071164 627.8896977583652Q2291.306036462603 638.6011620013094 2298.071171773936 645.3662973126425Q2304.836307085269 652.1314326239756 2315.0913931524487 652.1314326239756ZM2425.4543743623317 659.8630158369276L2425.4543743623317 659.8630158369276Q2412.1120241649796 659.8630158369276 2401.400559922036 653.5811044764041Q2390.662249904047 647.2991931158804 2384.4877216437035 635.809201396632Q2378.2863476083144 624.2923639023388 2378.2863476083144 608.6412770511197L2378.2863476083144 608.6412770511197Q2378.2863476083144 595.1110064284535 2384.380338543523 583.3257111837104Q2390.4743294787318 571.5404159389675 2401.4810972471705 564.2920566768248Q2412.5147107906546 557.0436974146821 2427.0114293149395 557.0436974146821L2427.0114293149395 557.0436974146821Q2435.1188533785216 557.0436974146821 2442.179292215349 559.6477375940445Q2449.2397310521774 562.251777773407 2454.6357318362166 567.5672412323115Q2460.058578395301 572.8827046912161 2463.145842525473 580.9095914296629Q2466.233106655645 588.9364781681097 2466.233106655645 599.7553255112339L2466.233106655645 599.7553255112339L2398.205912691684 600.9096938381676Q2398.205912691684 615.5943327877676 2401.400559922036 626.7084836563863Q2404.5683613773426 637.822634525005 2411.7361833143505 643.9166254602139Q2418.877159476313 650.0106163954226 2430.0986934451116 650.0106163954226L2430.0986934451116 650.0106163954226Q2436.0853012801404 650.0106163954226 2442.367212640664 647.8898001668697Q2448.649124001188 645.768983938317 2454.0719705602723 642.0911127571558Q2459.467971344312 638.4132415759943 2462.7700016748436 633.956842918529L2462.7700016748436 633.956842918529L2467.3874749825786 637.822634525005Q2462.179394623854 645.9569043636318 2454.8236522615316 650.7891438717268Q2447.4947556742536 655.621383379822 2439.763172461302 657.7421996083747Q2432.0315892483495 659.8630158369276 2425.4543743623317 659.8630158369276ZM2398.7696739676285 592.8022697745857L2398.7696739676285 592.8022697745857L2448.0585169501983 592.8022697745857Q2448.0585169501983 585.8492140379378 2446.0450838218253 579.3525364770544Q2444.0048049184074 572.8827046912161 2439.360485835627 568.7216095592453Q2434.7430125278916 564.5873602023196 2427.1993497402545 564.5873602023196L2427.1993497402545 564.5873602023196Q2415.977815771456 564.5873602023196 2408.541536083999 571.2451124134727Q2401.1052563965413 577.9028646246259 2398.7696739676285 592.8022697745857ZM2524.8105878037754 659.8630158369276L2524.8105878037754 659.8630158369276Q2513.025292559032 659.8630158369276 2503.5487339681567 653.9837911020786Q2494.0721753772814 648.0777205921845 2488.5687914930622 637.0709528237458Q2483.0654076088426 626.0373392802621 2483.0654076088426 611.1647799053471L2483.0654076088426 611.1647799053471Q2483.0654076088426 595.2989268537683 2489.427856294501 583.1377907583956Q2495.8171507552047 570.949808887978 2507.1192220491384 563.9967531513302Q2518.4212933430717 557.0436974146821 2532.730091442042 557.0436974146821L2532.730091442042 557.0436974146821Q2539.1193859027458 557.0436974146821 2545.4012972632695 558.6812896924255Q2551.683208623793 560.3188819701688 2555.334234029909 562.4396981987218L2555.334234029909 562.4396981987218L2555.334234029909 535.9697640043787Q2555.334234029909 532.8824998742068 2555.441617130089 530.0636934944846Q2555.549000230269 527.2717328898075 2555.9248410808987 523.4059412833315L2555.9248410808987 523.4059412833315Q2552.434890325052 523.5938617086463 2549.052322669386 523.7817821339611Q2545.669755013719 523.9965483343208 2542.206650032918 524.1844687596356L2542.206650032918 524.1844687596356L2542.206650032918 516.0501989210088Q2550.716760722174 516.0501989210088 2555.334234029909 515.2985172197497Q2559.9785531126895 514.5199897434454 2562.394672866737 513.3656214165117Q2564.810792620785 512.1844073145328 2566.179927148078 510.8421185622842L2566.179927148078 510.8421185622842L2571.763848357433 510.8421185622842L2571.763848357433 636.2924253474416Q2571.763848357433 639.3796894776135 2571.575927932118 642.4669536077854Q2571.3880075068028 645.5542177379573 2571.012166656173 649.4200093444333L2571.012166656173 649.4200093444333Q2574.475271636975 649.2320889191185 2577.8578392926415 649.0441684938037Q2581.2404069483077 648.8562480684889 2584.7303577041544 648.668327643174L2584.7303577041544 648.668327643174L2584.7303577041544 656.7757517067557L2557.0792094078324 656.7757517067557Q2556.515448131888 653.8764080018987 2556.220144606393 651.4602882478512Q2555.9248410808987 649.0441684938037 2555.736920655584 646.7354318399359L2555.736920655584 646.7354318399359Q2550.3140740964996 652.7220396749649 2542.3945704582325 656.2925277559461Q2534.475066819966 659.8630158369276 2524.8105878037754 659.8630158369276ZM2531.763643540423 650.3864572460523L2531.763643540423 650.3864572460523Q2538.1529380011266 650.3864572460523 2544.6227697869654 646.7354318399359Q2551.0926015728037 643.0575606587747 2555.334234029909 637.6347140996902L2555.334234029909 637.6347140996902Q2555.1463136045945 635.3259774458227 2555.1463136045945 632.7219372664601Q2555.1463136045945 630.091051312053 2555.1463136045945 627.0037871818811L2555.1463136045945 627.0037871818811L2555.334234029909 571.3524955136527Q2550.716760722174 567.8625447578063 2545.1865310629096 566.2249524800629Q2539.6831471786904 564.5873602023196 2533.8844597689763 564.5873602023196L2533.8844597689763 564.5873602023196Q2524.219980752786 564.5873602023196 2517.0790045908234 570.1712814116738Q2509.9111826538156 575.7820483960732 2506.260157247699 585.8492140379378Q2502.582286066538 595.8895339047576 2502.9581269171676 609.4198045274238L2502.9581269171676 609.4198045274238Q2503.360813542842 621.2050997721669 2506.743381198509 630.4937379377275Q2510.125948854175 639.7555303282431 2516.407860214699 645.0709937871477Q2522.689771575222 650.3864572460523 2531.763643540423 650.3864572460523ZM2685.428859897847 656.7757517067557L2657.777711601525 656.7757517067557Q2657.2139503255808 653.500567151269 2657.0260299002657 650.9770642970416Q2656.811263699906 648.4535614428141 2656.4354228492766 645.768983938317L2656.4354228492766 645.768983938317Q2649.858207963258 652.3193530492904 2642.2340078504863 656.1046073306316Q2634.582961962669 659.8630158369276 2626.099697048457 659.8630158369276L2626.099697048457 659.8630158369276Q2611.3882123238122 659.8630158369276 2604.2472361618493 653.2052636257745Q2597.106259999887 646.5206656395762 2597.106259999887 636.8561866233861L2597.106259999887 636.8561866233861Q2597.106259999887 627.9702350835 2602.6096438841064 621.5004032976617Q2608.1130277683255 615.0305715118232 2616.9184419830763 610.8694763798524Q2625.6970104227826 606.7083812478818 2636.032633815097 604.6949481195088Q2646.3951029824566 602.6546692160907 2656.059581998647 602.8425896414055L2656.059581998647 602.8425896414055L2656.059581998647 590.8693739713478Q2656.059581998647 584.1042386600147 2654.878367896668 578.1176308249858Q2653.723999569734 572.1041772149119 2649.858207963258 568.2383856084359Q2645.992416356782 564.3725940019597 2637.4823056675255 564.1846735766449L2637.4823056675255 564.1846735766449Q2631.898384458171 563.9967531513302 2625.992313948277 566.3054898051978Q2620.0862434383835 568.6410722341104 2617.4016659338863 574.2518392185098L2617.4016659338863 574.2518392185098Q2618.9318751114492 575.7820483960732 2619.4150990622593 577.822327299491Q2619.8983230130684 579.835760427864 2619.8983230130684 581.5807358057873L2619.8983230130684 581.5807358057873Q2619.8983230130684 583.9163182346999 2617.9654272098305 586.8961992646919Q2616.0325314065926 589.9029260697287 2611.200291898497 589.7150056444138L2611.200291898497 589.7150056444138Q2607.146579866707 589.7150056444138 2605.025763638154 586.8961992646919Q2602.904947409601 584.1042386600147 2602.904947409601 580.2384470535385L2602.904947409601 580.2384470535385Q2602.904947409601 573.6612321675202 2607.817724242831 568.4531518087956Q2612.757346851106 563.2182256750259 2621.455377965677 560.130961544854Q2630.1534090802484 557.0436974146821 2641.160176848687 557.0436974146821L2641.160176848687 557.0436974146821Q2657.401870750896 557.0436974146821 2665.1334539638474 565.6343454290734Q2672.8650371767994 574.2518392185098 2672.677116751485 592.8022697745857L2672.677116751485 592.8022697745857Q2672.677116751485 599.9432459365485 2672.677116751485 607.1916051986911Q2672.677116751485 614.4399644608338 2672.569733651305 621.6883237229765Q2672.4891963261703 628.936682985119 2672.4891963261703 636.2924253474416L2672.4891963261703 636.2924253474416Q2672.4891963261703 639.3796894776135 2672.2744301258103 642.4669536077854Q2672.0865097004958 645.5542177379573 2671.7106688498657 649.4200093444333L2671.7106688498657 649.4200093444333Q2675.1737738306674 649.2320889191185 2678.556341486334 649.0441684938037Q2681.9389091420003 648.8562480684889 2685.428859897847 648.668327643174L2685.428859897847 648.668327643174L2685.428859897847 656.7757517067557ZM2656.059581998647 609.4198045274238L2656.059581998647 609.4198045274238Q2649.4823671126283 609.6077249527386 2642.2340078504863 611.0573968051672Q2634.9856485883433 612.5070686575957 2628.891657653134 615.4064123624528Q2622.7976667179255 618.3057560673099 2619.0392582116297 623.05745825027Q2615.254003930288 627.7823146581852 2615.468770130648 634.5474499695183L2615.468770130648 634.5474499695183Q2615.8446109812776 641.688426131481 2620.1936265385634 645.2857599875074Q2624.542642095849 648.8562480684889 2630.5292499308775 648.8562480684889L2630.5292499308775 648.8562480684889Q2638.4487535691446 648.8562480684889 2644.3548240790387 645.8495212634518Q2650.260894588933 642.8696402334599 2656.059581998647 637.4467936743754L2656.059581998647 637.4467936743754Q2655.844815798287 635.3259774458227 2655.844815798287 632.8024745915952Q2655.844815798287 630.3058175124127 2655.844815798287 627.5943942328704L2655.844815798287 627.5943942328704Q2655.844815798287 626.6279463312515 2655.952198898467 621.3930201974817Q2656.059581998647 616.1849398387571 2656.059581998647 609.4198045274238ZM2738.395574061578 659.8630158369276L2738.395574061578 659.8630158369276Q2728.731095045388 659.8630158369276 2721.1874322577505 657.2589756575653Q2713.643769470113 654.654935478203 2708.811529962018 651.3529051476712L2708.811529962018 651.3529051476712L2709.590057438322 658.1180404590043L2701.4826333747405 658.1180404590043L2700.301419272762 624.8829709533281L2706.314872882836 624.8829709533281Q2706.6907137334656 632.8024745915952 2710.744425765256 639.0843859521187Q2714.7981377970473 645.3662973126425 2721.1874322577505 648.8562480684889Q2727.5767267184538 652.3193530492904 2734.9056233057318 652.3193530492904L2734.9056233057318 652.3193530492904Q2739.9257832391418 652.3193530492904 2744.7580227472363 650.681760771547Q2749.5902622553317 649.0441684938037 2752.8922925858633 645.661600838137Q2756.16747714135 642.2790331824706 2756.16747714135 637.0709528237458L2756.16747714135 637.0709528237458Q2756.16747714135 631.6481062646612 2752.9728299109984 628.07761818368Q2749.8050284556916 624.5071301026985 2744.570102321922 621.7957068231563Q2739.362021963197 619.084283543614 2733.375414128168 616.7755468897465L2733.375414128168 616.7755468897465Q2727.5767267184538 614.4399644608338 2721.77803930874 611.9433073816513Q2715.9793518990255 609.4198045274238 2711.039729290751 605.9298537715774Q2706.100106682476 602.4667487907759 2703.2007629776185 597.4465888573661Q2700.301419272762 592.3995831489112 2700.301419272762 585.0706865616337L2700.301419272762 585.0706865616337Q2700.301419272762 581.0169745298429 2701.85847422537 576.1847350217477Q2703.4155291779784 571.3524955136527 2707.066554584095 567.0034799563671Q2710.744425765256 562.6544643990815 2717.1337202259597 559.8356580193594Q2723.496168911618 557.0436974146821 2733.375414128168 557.0436974146821L2733.375414128168 557.0436974146821Q2738.583494486893 557.0436974146821 2744.972788947596 558.7886727926054Q2751.335237633255 560.5068023954836 2757.321845468284 565.3390419035788L2757.321845468284 565.3390419035788L2756.946004617654 558.0101453163013L2765.0534286812363 558.0101453163013L2765.0534286812363 591.8358218729668L2758.8789004208925 591.8358218729668Q2758.5030595702624 585.0706865616337 2755.7916362907204 578.7887752011102Q2753.0802130111783 572.5068638405864 2747.8721326524533 568.3457687086157Q2742.637206518684 564.1846735766449 2734.341862029787 564.1846735766449L2734.341862029787 564.1846735766449Q2725.4290647148564 564.1846735766449 2720.4089047814464 568.6410722341104Q2715.3887448480364 573.0706251165309 2715.3887448480364 578.869312526245L2715.3887448480364 578.869312526245Q2715.3887448480364 584.8827661363189 2719.1471533543327 588.8290950679298Q2722.932407635674 592.8022697745857 2728.9190154707026 595.7016134794428Q2734.9056233057318 598.6009571842999 2741.6707586170646 601.3123804638421L2741.6707586170646 601.3123804638421Q2749.0265009793875 604.399644594014 2755.9795567160354 608.0775157751752Q2762.932612452683 611.7285411812916 2767.3890111101487 617.258770840556Q2771.818563992569 622.7621547247754 2771.818563992569 631.4601858393464L2771.818563992569 631.4601858393464Q2771.818563992569 641.1246648555366 2766.905787159339 647.4871135411952Q2761.966164551064 653.8764080018987 2754.341964438292 656.8831348069357Q2746.6909185504746 659.8630158369276 2738.395574061578 659.8630158369276Z " fill="#b88746" transform="matrix(0.31567722784425234,0,0,0.31567722784425234,0,115.37207257119171)"/></g></svg>